<svg xmlns="http://www.w3.org/2000/svg" version="1.1" xmlns:xlink="http://www.w3.org/1999/xlink" xmlns:svgjs="http://svgjs.dev/svgjs" width="1440" height="560" preserveAspectRatio="none" viewBox="0 0 1440 560"><g mask="url(&quot;#SvgjsMask1268&quot;)" fill="none"><rect width="1440" height="560" x="0" y="0" fill="rgba(227, 227, 227, 0.62)"></rect><path d="M0 0L190.78 0L0 65.99z" fill="rgba(255, 255, 255, .1)"></path><path d="M0 65.99L190.78 0L405.93 0L0 337.77z" fill="rgba(255, 255, 255, .075)"></path><path d="M0 337.77L405.93 0L604.6700000000001 0L0 464.01z" fill="rgba(255, 255, 255, .05)"></path><path d="M0 464.01L604.6700000000001 0L946.1300000000001 0L0 465.32z" fill="rgba(255, 255, 255, .025)"></path><path d="M1440 560L1162.08 560L1440 334.4z" fill="rgba(0, 0, 0, .1)"></path><path d="M1440 334.4L1162.08 560L739.4399999999999 560L1440 216.55999999999997z" fill="rgba(0, 0, 0, .075)"></path><path d="M1440 216.56L739.44 560L320.09000000000003 560L1440 121.46000000000001z" fill="rgba(0, 0, 0, .05)"></path><path d="M1440 121.46000000000004L320.09000000000015 560L319.19000000000017 560L1440 71.81000000000003z" fill="rgba(0, 0, 0, .025)"></path></g><defs><mask id="SvgjsMask1268"><rect width="1440" height="560" fill="#ffffff"></rect></mask></defs></svg>